<svg xmlns="http://www.w3.org/2000/svg" xmlns:xlink="http://www.w3.org/1999/xlink" contentStyleType="text/css" height="868px" preserveAspectRatio="none" style="width:3058px;height:868px;background:#FFFFFF;" version="1.1" viewBox="0 0 3058 868" width="3058px" zoomAndPan="magnify"><defs/><g><!--cluster flashcards--><g id="cluster_flashcards"><path d="M8.5,6 L91.1416,6 A3.75,3.75 0 0 1 93.6416,8.5 L100.6416,28.2969 L3048.5,28.2969 A2.5,2.5 0 0 1 3051,30.7969 L3051,858.5 A2.5,2.5 0 0 1 3048.5,861 L8.5,861 A2.5,2.5 0 0 1 6,858.5 L6,8.5 A2.5,2.5 0 0 1 8.5,6 " fill="none" style="stroke:#000000;stroke-width:1.5;"/><line style="stroke:#000000;stroke-width:1.5;" x1="6" x2="100.6416" y1="28.2969" y2="28.2969"/><text fill="#000000" font-family="sans-serif" font-size="14" font-weight="bold" lengthAdjust="spacing" textLength="81.6416" x="10" y="20.9951">flashcards</text></g><!--cluster models--><g id="cluster_models"><path d="M1995.5,575 L2053.3545,575 A3.75,3.75 0 0 1 2055.8545,577.5 L2062.8545,597.2969 L2272.5,597.2969 A2.5,2.5 0 0 1 2275,599.7969 L2275,834.5 A2.5,2.5 0 0 1 2272.5,837 L1995.5,837 A2.5,2.5 0 0 1 1993,834.5 L1993,577.5 A2.5,2.5 0 0 1 1995.5,575 " fill="none" style="stroke:#000000;stroke-width:1.5;"/><line style="stroke:#000000;stroke-width:1.5;" x1="1993" x2="2062.8545" y1="597.2969" y2="597.2969"/><text fill="#000000" font-family="sans-serif" font-size="14" font-weight="bold" lengthAdjust="spacing" textLength="56.8545" x="1997" y="589.9951">models</text></g><!--cluster decorators--><g id="cluster_decorators"><path d="M2741.5,378 L2827.833,378 A3.75,3.75 0 0 1 2830.333,380.5 L2837.333,400.2969 L3024.5,400.2969 A2.5,2.5 0 0 1 3027,402.7969 L3027,523.5 A2.5,2.5 0 0 1 3024.5,526 L2741.5,526 A2.5,2.5 0 0 1 2739,523.5 L2739,380.5 A2.5,2.5 0 0 1 2741.5,378 " fill="none" style="stroke:#000000;stroke-width:1.5;"/><line style="stroke:#000000;stroke-width:1.5;" x1="2739" x2="2837.333" y1="400.2969" y2="400.2969"/><text fill="#000000" font-family="sans-serif" font-size="14" font-weight="bold" lengthAdjust="spacing" textLength="85.333" x="2743" y="392.9951">decorators</text></g><!--cluster admin--><g id="cluster_admin"><path d="M2469.5,394.5 L2519.3223,394.5 A3.75,3.75 0 0 1 2521.8223,397 L2528.8223,416.7969 L2712.5,416.7969 A2.5,2.5 0 0 1 2715,419.2969 L2715,507 A2.5,2.5 0 0 1 2712.5,509.5 L2469.5,509.5 A2.5,2.5 0 0 1 2467,507 L2467,397 A2.5,2.5 0 0 1 2469.5,394.5 " fill="none" style="stroke:#000000;stroke-width:1.5;"/><line style="stroke:#000000;stroke-width:1.5;" x1="2467" x2="2528.8223" y1="416.7969" y2="416.7969"/><text fill="#000000" font-family="sans-serif" font-size="14" font-weight="bold" lengthAdjust="spacing" textLength="48.8223" x="2471" y="409.4951">admin</text></g><!--cluster forms--><g id="cluster_forms"><path d="M2009.5,197 L2056.0342,197 A3.75,3.75 0 0 1 2058.5342,199.5 L2065.5342,219.2969 L2202.5,219.2969 A2.5,2.5 0 0 1 2205,221.7969 L2205,326.5 A2.5,2.5 0 0 1 2202.5,329 L2009.5,329 A2.5,2.5 0 0 1 2007,326.5 L2007,199.5 A2.5,2.5 0 0 1 2009.5,197 " fill="none" style="stroke:#000000;stroke-width:1.5;"/><line style="stroke:#000000;stroke-width:1.5;" x1="2007" x2="2065.5342" y1="219.2969" y2="219.2969"/><text fill="#000000" font-family="sans-serif" font-size="14" font-weight="bold" lengthAdjust="spacing" textLength="45.5342" x="2011" y="211.9951">forms</text></g><!--cluster services--><g id="cluster_services"><path d="M32.5,197 L98.2842,197 A3.75,3.75 0 0 1 100.7842,199.5 L107.7842,219.2969 L1947.5,219.2969 A2.5,2.5 0 0 1 1950,221.7969 L1950,761 A2.5,2.5 0 0 1 1947.5,763.5 L32.5,763.5 A2.5,2.5 0 0 1 30,761 L30,199.5 A2.5,2.5 0 0 1 32.5,197 " fill="none" style="stroke:#000000;stroke-width:1.5;"/><line style="stroke:#000000;stroke-width:1.5;" x1="30" x2="107.7842" y1="219.2969" y2="219.2969"/><text fill="#000000" font-family="sans-serif" font-size="14" font-weight="bold" lengthAdjust="spacing" textLength="64.7842" x="34" y="211.9951">services</text></g><!--cluster views--><g id="cluster_views"><path d="M260.5,49 L306.1865,49 A3.75,3.75 0 0 1 308.6865,51.5 L315.6865,71.2969 L3024.5,71.2969 A2.5,2.5 0 0 1 3027,73.7969 L3027,161.5 A2.5,2.5 0 0 1 3024.5,164 L260.5,164 A2.5,2.5 0 0 1 258,161.5 L258,51.5 A2.5,2.5 0 0 1 260.5,49 " fill="none" style="stroke:#000000;stroke-width:1.5;"/><line style="stroke:#000000;stroke-width:1.5;" x1="258" x2="315.6865" y1="71.2969" y2="71.2969"/><text fill="#000000" font-family="sans-serif" font-size="14" font-weight="bold" lengthAdjust="spacing" textLength="44.6865" x="262" y="63.9951">views</text></g><!--class Flashcard--><g id="elem_Flashcard"><rect codeLine="5" fill="#F1F1F1" height="210.9688" id="Flashcard" rx="2.5" ry="2.5" style="stroke:#181818;stroke-width:0.5;" width="248.7559" x="2009.5" y="610"/><ellipse cx="2095.8242" cy="626" fill="#ADD1B2" rx="11" ry="11" style="stroke:#181818;stroke-width:1;"/><path d="M2098.793,631.6406 Q2098.2148,631.9375 2097.5742,632.0781 Q2096.9336,632.2344 2096.2305,632.2344 Q2093.7305,632.2344 2092.4023,630.5938 Q2091.0898,628.9375 2091.0898,625.8125 Q2091.0898,622.6875 2092.4023,621.0313 Q2093.7305,619.375 2096.2305,619.375 Q2096.9336,619.375 2097.5742,619.5313 Q2098.2305,619.6875 2098.793,619.9844 L2098.793,622.7031 Q2098.168,622.125 2097.5742,621.8594 Q2096.9805,621.5781 2096.3555,621.5781 Q2095.0117,621.5781 2094.3242,622.6563 Q2093.6367,623.7188 2093.6367,625.8125 Q2093.6367,627.9063 2094.3242,628.9844 Q2095.0117,630.0469 2096.3555,630.0469 Q2096.9805,630.0469 2097.5742,629.7813 Q2098.168,629.5 2098.793,628.9219 L2098.793,631.6406 Z " fill="#000000"/><text fill="#000000" font-family="sans-serif" font-size="14" lengthAdjust="spacing" textLength="67.6074" x="2116.3242" y="630.8467">Flashcard</text><line style="stroke:#181818;stroke-width:0.5;" x1="2010.5" x2="2257.2559" y1="642" y2="642"/><ellipse cx="2020.5" cy="655.6484" fill="none" rx="3" ry="3" style="stroke:#038048;stroke-width:1;"/><text fill="#000000" font-family="sans-serif" font-size="14" lengthAdjust="spacing" textLength="105.041" x="2029.5" y="658.9951">question : Text</text><ellipse cx="2020.5" cy="671.9453" fill="none" rx="3" ry="3" style="stroke:#038048;stroke-width:1;"/><text fill="#000000" font-family="sans-serif" font-size="14" lengthAdjust="spacing" textLength="95.1221" x="2029.5" y="675.292">answer : Text</text><ellipse cx="2020.5" cy="688.2422" fill="none" rx="3" ry="3" style="stroke:#038048;stroke-width:1;"/><text fill="#000000" font-family="sans-serif" font-size="14" lengthAdjust="spacing" textLength="94.0283" x="2029.5" y="691.5889">category : str</text><ellipse cx="2020.5" cy="704.5391" fill="none" rx="3" ry="3" style="stroke:#038048;stroke-width:1;"/><text fill="#000000" font-family="sans-serif" font-size="14" lengthAdjust="spacing" textLength="78.9551" x="2029.5" y="707.8857">source : str</text><ellipse cx="2020.5" cy="720.8359" fill="none" rx="3" ry="3" style="stroke:#038048;stroke-width:1;"/><text fill="#000000" font-family="sans-serif" font-size="14" lengthAdjust="spacing" textLength="67.6211" x="2029.5" y="724.1826">state : str</text><ellipse cx="2020.5" cy="737.1328" fill="none" rx="3" ry="3" style="stroke:#038048;stroke-width:1;"/><text fill="#000000" font-family="sans-serif" font-size="14" lengthAdjust="spacing" textLength="151.5186" x="2029.5" y="740.4795">created_at : datetime</text><ellipse cx="2020.5" cy="753.4297" fill="none" rx="3" ry="3" style="stroke:#038048;stroke-width:1;"/><text fill="#000000" font-family="sans-serif" font-size="14" lengthAdjust="spacing" textLength="156.0986" x="2029.5" y="756.7764">updated_at : datetime</text><text fill="#000000" font-family="sans-serif" font-size="14" lengthAdjust="spacing" textLength="10.1035" x="2029.5" y="773.0732">--</text><line style="stroke:#181818;stroke-width:0.5;" x1="2010.5" x2="2257.2559" y1="780.375" y2="780.375"/><ellipse cx="2020.5" cy="794.0234" fill="#84BE84" rx="3" ry="3" style="stroke:#038048;stroke-width:1;"/><text fill="#000000" font-family="sans-serif" font-size="14" lengthAdjust="spacing" textLength="57.4629" x="2029.5" y="797.3701">__str__()</text><ellipse cx="2020.5" cy="810.3203" fill="#84BE84" rx="3" ry="3" style="stroke:#038048;stroke-width:1;"/><text fill="#000000" font-family="sans-serif" font-size="14" lengthAdjust="spacing" textLength="222.7559" x="2029.5" y="813.667">update_statistics(correct : bool)</text></g><!--class FlashcardDecorator--><g id="elem_FlashcardDecorator"><rect codeLine="24" fill="#F1F1F1" height="96.8906" id="FlashcardDecorator" rx="2.5" ry="2.5" style="stroke:#181818;stroke-width:0.5;" width="255.0928" x="2755.5" y="413"/><ellipse cx="2810.0918" cy="429" fill="#ADD1B2" rx="11" ry="11" style="stroke:#181818;stroke-width:1;"/><path d="M2813.0605,434.6406 Q2812.4824,434.9375 2811.8418,435.0781 Q2811.2012,435.2344 2810.498,435.2344 Q2807.998,435.2344 2806.6699,433.5938 Q2805.3574,431.9375 2805.3574,428.8125 Q2805.3574,425.6875 2806.6699,424.0313 Q2807.998,422.375 2810.498,422.375 Q2811.2012,422.375 2811.8418,422.5313 Q2812.498,422.6875 2813.0605,422.9844 L2813.0605,425.7031 Q2812.4355,425.125 2811.8418,424.8594 Q2811.248,424.5781 2810.623,424.5781 Q2809.2793,424.5781 2808.5918,425.6563 Q2807.9043,426.7188 2807.9043,428.8125 Q2807.9043,430.9063 2808.5918,431.9844 Q2809.2793,433.0469 2810.623,433.0469 Q2811.248,433.0469 2811.8418,432.7813 Q2812.4355,432.5 2813.0605,431.9219 L2813.0605,434.6406 Z " fill="#000000"/><text fill="#000000" font-family="sans-serif" font-size="14" lengthAdjust="spacing" textLength="137.4092" x="2830.5918" y="433.8467">FlashcardDecorator</text><line style="stroke:#181818;stroke-width:0.5;" x1="2756.5" x2="3009.5928" y1="445" y2="445"/><rect fill="none" height="6" style="stroke:#C82930;stroke-width:1;" width="6" x="2763.5" y="455.6484"/><text fill="#000000" font-family="sans-serif" font-size="14" lengthAdjust="spacing" textLength="145.708" x="2775.5" y="461.9951">flashcard : Flashcard</text><line style="stroke:#181818;stroke-width:1;" x1="2756.5" x2="3009.5928" y1="469.2969" y2="469.2969"/><ellipse cx="2766.5" cy="482.9453" fill="#84BE84" rx="3" ry="3" style="stroke:#038048;stroke-width:1;"/><text fill="#000000" font-family="sans-serif" font-size="14" lengthAdjust="spacing" textLength="87.5547" x="2775.5" y="486.292">get_details()</text><ellipse cx="2766.5" cy="499.2422" fill="#84BE84" rx="3" ry="3" style="stroke:#038048;stroke-width:1;"/><text fill="#000000" font-family="sans-serif" font-size="14" lengthAdjust="spacing" textLength="229.0928" x="2775.5" y="502.5889">log_flashcard_action(action : str)</text></g><!--class FlashcardAdmin--><g id="elem_FlashcardAdmin"><rect codeLine="36" fill="#F1F1F1" height="64.2969" id="FlashcardAdmin" rx="2.5" ry="2.5" style="stroke:#181818;stroke-width:0.5;" width="215.3896" x="2483.5" y="429.5"/><ellipse cx="2530.709" cy="445.5" fill="#ADD1B2" rx="11" ry="11" style="stroke:#181818;stroke-width:1;"/><path d="M2533.6777,451.1406 Q2533.0996,451.4375 2532.459,451.5781 Q2531.8184,451.7344 2531.1152,451.7344 Q2528.6152,451.7344 2527.2871,450.0938 Q2525.9746,448.4375 2525.9746,445.3125 Q2525.9746,442.1875 2527.2871,440.5313 Q2528.6152,438.875 2531.1152,438.875 Q2531.8184,438.875 2532.459,439.0313 Q2533.1152,439.1875 2533.6777,439.4844 L2533.6777,442.2031 Q2533.0527,441.625 2532.459,441.3594 Q2531.8652,441.0781 2531.2402,441.0781 Q2529.8965,441.0781 2529.209,442.1563 Q2528.5215,443.2188 2528.5215,445.3125 Q2528.5215,447.4063 2529.209,448.4844 Q2529.8965,449.5469 2531.2402,449.5469 Q2531.8652,449.5469 2532.459,449.2813 Q2533.0527,449 2533.6777,448.4219 L2533.6777,451.1406 Z " fill="#000000"/><text fill="#000000" font-family="sans-serif" font-size="14" lengthAdjust="spacing" textLength="112.4717" x="2551.209" y="450.3467">FlashcardAdmin</text><line style="stroke:#181818;stroke-width:0.5;" x1="2484.5" x2="2697.8896" y1="461.5" y2="461.5"/><line style="stroke:#181818;stroke-width:1;" x1="2484.5" x2="2697.8896" y1="469.5" y2="469.5"/><ellipse cx="2494.5" cy="483.1484" fill="#84BE84" rx="3" ry="3" style="stroke:#038048;stroke-width:1;"/><text fill="#000000" font-family="sans-serif" font-size="14" lengthAdjust="spacing" textLength="189.3896" x="2503.5" y="486.4951">delete_model(request, obj)</text></g><!--class FlashcardForm--><g id="elem_FlashcardForm"><rect codeLine="50" fill="#F1F1F1" height="80.5938" id="FlashcardForm" rx="2.5" ry="2.5" style="stroke:#181818;stroke-width:0.5;" width="166.1367" x="2023" y="232"/><ellipse cx="2051.7329" cy="248" fill="#ADD1B2" rx="11" ry="11" style="stroke:#181818;stroke-width:1;"/><path d="M2054.7017,253.6406 Q2054.1235,253.9375 2053.4829,254.0781 Q2052.8423,254.2344 2052.1392,254.2344 Q2049.6392,254.2344 2048.311,252.5938 Q2046.9985,250.9375 2046.9985,247.8125 Q2046.9985,244.6875 2048.311,243.0313 Q2049.6392,241.375 2052.1392,241.375 Q2052.8423,241.375 2053.4829,241.5313 Q2054.1392,241.6875 2054.7017,241.9844 L2054.7017,244.7031 Q2054.0767,244.125 2053.4829,243.8594 Q2052.8892,243.5781 2052.2642,243.5781 Q2050.9204,243.5781 2050.2329,244.6563 Q2049.5454,245.7188 2049.5454,247.8125 Q2049.5454,249.9063 2050.2329,250.9844 Q2050.9204,252.0469 2052.2642,252.0469 Q2052.8892,252.0469 2053.4829,251.7813 Q2054.0767,251.5 2054.7017,250.9219 L2054.7017,253.6406 Z " fill="#000000"/><text fill="#000000" font-family="sans-serif" font-size="14" lengthAdjust="spacing" textLength="103.6191" x="2068.7847" y="252.8467">FlashcardForm</text><line style="stroke:#181818;stroke-width:0.5;" x1="2024" x2="2188.1367" y1="264" y2="264"/><line style="stroke:#181818;stroke-width:1;" x1="2024" x2="2188.1367" y1="272" y2="272"/><ellipse cx="2034" cy="285.6484" fill="#84BE84" rx="3" ry="3" style="stroke:#038048;stroke-width:1;"/><text fill="#000000" font-family="sans-serif" font-size="14" lengthAdjust="spacing" textLength="48.5762" x="2043" y="288.9951">clean()</text><ellipse cx="2034" cy="301.9453" fill="#84BE84" rx="3" ry="3" style="stroke:#038048;stroke-width:1;"/><text fill="#000000" font-family="sans-serif" font-size="14" lengthAdjust="spacing" textLength="140.1367" x="2043" y="305.292">save(commit : bool)</text></g><!--class FlashcardRenderer--><g id="elem_FlashcardRenderer"><rect codeLine="66" fill="#F1F1F1" height="64.2969" id="FlashcardRenderer" rx="2.5" ry="2.5" style="stroke:#181818;stroke-width:0.5;" width="335.3672" x="1314.5" y="683.5"/><ellipse cx="1411.7104" cy="699.5" fill="#A9DCDF" rx="11" ry="11" style="stroke:#181818;stroke-width:1;"/><path d="M1411.8198,694.8438 L1410.6636,699.9219 L1412.9917,699.9219 L1411.8198,694.8438 Z M1410.3354,692.6094 L1413.3198,692.6094 L1416.6792,705 L1414.2261,705 L1413.4604,701.9375 L1410.1792,701.9375 L1409.4292,705 L1406.9917,705 L1410.3354,692.6094 Z " fill="#000000"/><text fill="#000000" font-family="sans-serif" font-size="14" font-style="italic" lengthAdjust="spacing" textLength="132.4463" x="1432.2104" y="704.3467">FlashcardRenderer</text><line style="stroke:#181818;stroke-width:0.5;" x1="1315.5" x2="1648.8672" y1="715.5" y2="715.5"/><line style="stroke:#181818;stroke-width:0.5;" x1="1315.5" x2="1648.8672" y1="723.5" y2="723.5"/><ellipse cx="1325.5" cy="737.1484" fill="#84BE84" rx="3" ry="3" style="stroke:#038048;stroke-width:1;"/><text fill="#000000" font-family="sans-serif" font-size="14" lengthAdjust="spacing" textLength="309.3672" x="1334.5" y="740.4951">render(flashcard : Flashcard, language : str)</text></g><!--class TextRenderer--><g id="elem_TextRenderer"><rect codeLine="71" fill="#F1F1F1" height="64.2969" id="TextRenderer" rx="2.5" ry="2.5" style="stroke:#181818;stroke-width:0.5;" width="367.5234" x="1298" y="429.5"/><ellipse cx="1429.6226" cy="445.5" fill="#ADD1B2" rx="11" ry="11" style="stroke:#181818;stroke-width:1;"/><path d="M1432.5913,451.1406 Q1432.0132,451.4375 1431.3726,451.5781 Q1430.7319,451.7344 1430.0288,451.7344 Q1427.5288,451.7344 1426.2007,450.0938 Q1424.8882,448.4375 1424.8882,445.3125 Q1424.8882,442.1875 1426.2007,440.5313 Q1427.5288,438.875 1430.0288,438.875 Q1430.7319,438.875 1431.3726,439.0313 Q1432.0288,439.1875 1432.5913,439.4844 L1432.5913,442.2031 Q1431.9663,441.625 1431.3726,441.3594 Q1430.7788,441.0781 1430.1538,441.0781 Q1428.8101,441.0781 1428.1226,442.1563 Q1427.4351,443.2188 1427.4351,445.3125 Q1427.4351,447.4063 1428.1226,448.4844 Q1428.8101,449.5469 1430.1538,449.5469 Q1430.7788,449.5469 1431.3726,449.2813 Q1431.9663,449 1432.5913,448.4219 L1432.5913,451.1406 Z " fill="#000000"/><text fill="#000000" font-family="sans-serif" font-size="14" lengthAdjust="spacing" textLength="95.7783" x="1450.1226" y="450.3467">TextRenderer</text><line style="stroke:#181818;stroke-width:0.5;" x1="1299" x2="1664.5234" y1="461.5" y2="461.5"/><line style="stroke:#181818;stroke-width:0.5;" x1="1299" x2="1664.5234" y1="469.5" y2="469.5"/><ellipse cx="1309" cy="483.1484" fill="#84BE84" rx="3" ry="3" style="stroke:#038048;stroke-width:1;"/><text fill="#000000" font-family="sans-serif" font-size="14" lengthAdjust="spacing" textLength="341.5234" x="1318" y="486.4951">render(flashcard : Flashcard, language : str) : str</text></g><!--class AudioRenderer--><g id="elem_AudioRenderer"><rect codeLine="74" fill="#F1F1F1" height="64.2969" id="AudioRenderer" rx="2.5" ry="2.5" style="stroke:#181818;stroke-width:0.5;" width="387.5527" x="875" y="429.5"/><ellipse cx="1012.2109" cy="445.5" fill="#ADD1B2" rx="11" ry="11" style="stroke:#181818;stroke-width:1;"/><path d="M1015.1797,451.1406 Q1014.6016,451.4375 1013.9609,451.5781 Q1013.3203,451.7344 1012.6172,451.7344 Q1010.1172,451.7344 1008.7891,450.0938 Q1007.4766,448.4375 1007.4766,445.3125 Q1007.4766,442.1875 1008.7891,440.5313 Q1010.1172,438.875 1012.6172,438.875 Q1013.3203,438.875 1013.9609,439.0313 Q1014.6172,439.1875 1015.1797,439.4844 L1015.1797,442.2031 Q1014.5547,441.625 1013.9609,441.3594 Q1013.3672,441.0781 1012.7422,441.0781 Q1011.3984,441.0781 1010.7109,442.1563 Q1010.0234,443.2188 1010.0234,445.3125 Q1010.0234,447.4063 1010.7109,448.4844 Q1011.3984,449.5469 1012.7422,449.5469 Q1013.3672,449.5469 1013.9609,449.2813 Q1014.5547,449 1015.1797,448.4219 L1015.1797,451.1406 Z " fill="#000000"/><text fill="#000000" font-family="sans-serif" font-size="14" lengthAdjust="spacing" textLength="104.6309" x="1032.7109" y="450.3467">AudioRenderer</text><line style="stroke:#181818;stroke-width:0.5;" x1="876" x2="1261.5527" y1="461.5" y2="461.5"/><line style="stroke:#181818;stroke-width:0.5;" x1="876" x2="1261.5527" y1="469.5" y2="469.5"/><ellipse cx="886" cy="483.1484" fill="#84BE84" rx="3" ry="3" style="stroke:#038048;stroke-width:1;"/><text fill="#000000" font-family="sans-serif" font-size="14" lengthAdjust="spacing" textLength="361.5527" x="895" y="486.4951">render(flashcard : Flashcard, language : str) : bytes</text></g><!--class RendererFactory--><g id="elem_RendererFactory"><rect codeLine="87" fill="#F1F1F1" height="64.2969" id="RendererFactory" rx="2.5" ry="2.5" style="stroke:#181818;stroke-width:0.5;" width="352.9561" x="1304.5" y="240.5"/><ellipse cx="1418.0962" cy="256.5" fill="#ADD1B2" rx="11" ry="11" style="stroke:#181818;stroke-width:1;"/><path d="M1421.0649,262.1406 Q1420.4868,262.4375 1419.8462,262.5781 Q1419.2056,262.7344 1418.5024,262.7344 Q1416.0024,262.7344 1414.6743,261.0938 Q1413.3618,259.4375 1413.3618,256.3125 Q1413.3618,253.1875 1414.6743,251.5313 Q1416.0024,249.875 1418.5024,249.875 Q1419.2056,249.875 1419.8462,250.0313 Q1420.5024,250.1875 1421.0649,250.4844 L1421.0649,253.2031 Q1420.4399,252.625 1419.8462,252.3594 Q1419.2524,252.0781 1418.6274,252.0781 Q1417.2837,252.0781 1416.5962,253.1563 Q1415.9087,254.2188 1415.9087,256.3125 Q1415.9087,258.4063 1416.5962,259.4844 Q1417.2837,260.5469 1418.6274,260.5469 Q1419.2524,260.5469 1419.8462,260.2813 Q1420.4399,260 1421.0649,259.4219 L1421.0649,262.1406 Z " fill="#000000"/><text fill="#000000" font-family="sans-serif" font-size="14" lengthAdjust="spacing" textLength="117.2637" x="1438.5962" y="261.3467">RendererFactory</text><line style="stroke:#181818;stroke-width:0.5;" x1="1305.5" x2="1656.4561" y1="272.5" y2="272.5"/><line style="stroke:#181818;stroke-width:0.5;" x1="1305.5" x2="1656.4561" y1="280.5" y2="280.5"/><ellipse cx="1315.5" cy="294.1484" fill="#84BE84" rx="3" ry="3" style="stroke:#038048;stroke-width:1;"/><text fill="#000000" font-family="sans-serif" font-size="14" lengthAdjust="spacing" textLength="326.9561" x="1324.5" y="297.4951">get_renderer(format : str) : FlashcardRenderer</text></g><!--class FlashcardStandard--><g id="elem_FlashcardStandard"><rect codeLine="94" fill="#F1F1F1" height="96.8906" id="FlashcardStandard" rx="2.5" ry="2.5" style="stroke:#181818;stroke-width:0.5;" width="232.9307" x="1701.5" y="413"/><ellipse cx="1747.9434" cy="429" fill="#ADD1B2" rx="11" ry="11" style="stroke:#181818;stroke-width:1;"/><path d="M1750.9121,434.6406 Q1750.334,434.9375 1749.6934,435.0781 Q1749.0527,435.2344 1748.3496,435.2344 Q1745.8496,435.2344 1744.5215,433.5938 Q1743.209,431.9375 1743.209,428.8125 Q1743.209,425.6875 1744.5215,424.0313 Q1745.8496,422.375 1748.3496,422.375 Q1749.0527,422.375 1749.6934,422.5313 Q1750.3496,422.6875 1750.9121,422.9844 L1750.9121,425.7031 Q1750.2871,425.125 1749.6934,424.8594 Q1749.0996,424.5781 1748.4746,424.5781 Q1747.1309,424.5781 1746.4434,425.6563 Q1745.7559,426.7188 1745.7559,428.8125 Q1745.7559,430.9063 1746.4434,431.9844 Q1747.1309,433.0469 1748.4746,433.0469 Q1749.0996,433.0469 1749.6934,432.7813 Q1750.2871,432.5 1750.9121,431.9219 L1750.9121,434.6406 Z " fill="#000000"/><text fill="#000000" font-family="sans-serif" font-size="14" lengthAdjust="spacing" textLength="131.5439" x="1768.4434" y="433.8467">FlashcardStandard</text><line style="stroke:#181818;stroke-width:0.5;" x1="1702.5" x2="1933.4307" y1="445" y2="445"/><rect fill="none" height="6" style="stroke:#C82930;stroke-width:1;" width="6" x="1709.5" y="455.6484"/><text fill="#000000" font-family="sans-serif" font-size="14" lengthAdjust="spacing" textLength="145.708" x="1721.5" y="461.9951">flashcard : Flashcard</text><rect fill="none" height="6" style="stroke:#C82930;stroke-width:1;" width="6" x="1709.5" y="471.9453"/><text fill="#000000" font-family="sans-serif" font-size="14" lengthAdjust="spacing" textLength="206.9307" x="1721.5" y="478.292">renderer : FlashcardRenderer</text><line style="stroke:#181818;stroke-width:1;" x1="1702.5" x2="1933.4307" y1="485.5938" y2="485.5938"/><ellipse cx="1712.5" cy="499.2422" fill="#84BE84" rx="3" ry="3" style="stroke:#038048;stroke-width:1;"/><text fill="#000000" font-family="sans-serif" font-size="14" lengthAdjust="spacing" textLength="60.6348" x="1721.5" y="502.5889">display()</text></g><!--class FlashcardFacade--><g id="elem_FlashcardFacade"><rect codeLine="105" fill="#F1F1F1" height="80.5938" id="FlashcardFacade" rx="2.5" ry="2.5" style="stroke:#181818;stroke-width:0.5;" width="528.8516" x="363.5" y="232"/><ellipse cx="564.668" cy="248" fill="#ADD1B2" rx="11" ry="11" style="stroke:#181818;stroke-width:1;"/><path d="M567.6367,253.6406 Q567.0586,253.9375 566.418,254.0781 Q565.7773,254.2344 565.0742,254.2344 Q562.5742,254.2344 561.2461,252.5938 Q559.9336,250.9375 559.9336,247.8125 Q559.9336,244.6875 561.2461,243.0313 Q562.5742,241.375 565.0742,241.375 Q565.7773,241.375 566.418,241.5313 Q567.0742,241.6875 567.6367,241.9844 L567.6367,244.7031 Q567.0117,244.125 566.418,243.8594 Q565.8242,243.5781 565.1992,243.5781 Q563.8555,243.5781 563.168,244.6563 Q562.4805,245.7188 562.4805,247.8125 Q562.4805,249.9063 563.168,250.9844 Q563.8555,252.0469 565.1992,252.0469 Q565.8242,252.0469 566.418,251.7813 Q567.0117,251.5 567.6367,250.9219 L567.6367,253.6406 Z " fill="#000000"/><text fill="#000000" font-family="sans-serif" font-size="14" lengthAdjust="spacing" textLength="118.0156" x="585.168" y="252.8467">FlashcardFacade</text><line style="stroke:#181818;stroke-width:0.5;" x1="364.5" x2="891.3516" y1="264" y2="264"/><line style="stroke:#181818;stroke-width:0.5;" x1="364.5" x2="891.3516" y1="272" y2="272"/><ellipse cx="374.5" cy="285.6484" fill="#84BE84" rx="3" ry="3" style="stroke:#038048;stroke-width:1;"/><text fill="#000000" font-family="sans-serif" font-size="14" lengthAdjust="spacing" textLength="502.8516" x="383.5" y="288.9951">generate_flashcards_from_image(image_path : str, category="default")</text><ellipse cx="374.5" cy="301.9453" fill="#84BE84" rx="3" ry="3" style="stroke:#038048;stroke-width:1;"/><text fill="#000000" font-family="sans-serif" font-size="14" lengthAdjust="spacing" textLength="432.5645" x="383.5" y="305.292">generate_flashcards_from_text(text : str, category="default")</text></g><!--class OCRProcessor--><g id="elem_OCRProcessor"><rect codeLine="111" fill="#F1F1F1" height="80.5938" id="OCRProcessor" rx="2.5" ry="2.5" style="stroke:#181818;stroke-width:0.5;" width="471.4707" x="45.5" y="421"/><ellipse cx="227.7324" cy="437" fill="#ADD1B2" rx="11" ry="11" style="stroke:#181818;stroke-width:1;"/><path d="M230.7012,442.6406 Q230.123,442.9375 229.4824,443.0781 Q228.8418,443.2344 228.1387,443.2344 Q225.6387,443.2344 224.3105,441.5938 Q222.998,439.9375 222.998,436.8125 Q222.998,433.6875 224.3105,432.0313 Q225.6387,430.375 228.1387,430.375 Q228.8418,430.375 229.4824,430.5313 Q230.1387,430.6875 230.7012,430.9844 L230.7012,433.7031 Q230.0762,433.125 229.4824,432.8594 Q228.8887,432.5781 228.2637,432.5781 Q226.9199,432.5781 226.2324,433.6563 Q225.5449,434.7188 225.5449,436.8125 Q225.5449,438.9063 226.2324,439.9844 Q226.9199,441.0469 228.2637,441.0469 Q228.8887,441.0469 229.4824,440.7813 Q230.0762,440.5 230.7012,439.9219 L230.7012,442.6406 Z " fill="#000000"/><text fill="#000000" font-family="sans-serif" font-size="14" lengthAdjust="spacing" textLength="98.5059" x="248.2324" y="441.8467">OCRProcessor</text><line style="stroke:#181818;stroke-width:0.5;" x1="46.5" x2="515.9707" y1="453" y2="453"/><line style="stroke:#181818;stroke-width:0.5;" x1="46.5" x2="515.9707" y1="461" y2="461"/><ellipse cx="56.5" cy="474.6484" fill="#84BE84" rx="3" ry="3" style="stroke:#038048;stroke-width:1;"/><text fill="#000000" font-family="sans-serif" font-size="14" lengthAdjust="spacing" textLength="242.457" x="65.5" y="477.9951">extract_text(image_path : str) : str</text><ellipse cx="56.5" cy="490.9453" fill="#84BE84" rx="3" ry="3" style="stroke:#038048;stroke-width:1;"/><text fill="#000000" font-family="sans-serif" font-size="14" lengthAdjust="spacing" textLength="445.4707" x="65.5" y="494.292">analyze_text_and_generate_flashcards(text : str, category : str)</text></g><!--class NLPProcessor--><g id="elem_NLPProcessor"><rect codeLine="115" fill="#F1F1F1" height="64.2969" id="NLPProcessor" rx="2.5" ry="2.5" style="stroke:#181818;stroke-width:0.5;" width="288.9307" x="551.5" y="429.5"/><ellipse cx="644.3662" cy="445.5" fill="#ADD1B2" rx="11" ry="11" style="stroke:#181818;stroke-width:1;"/><path d="M647.335,451.1406 Q646.7568,451.4375 646.1162,451.5781 Q645.4756,451.7344 644.7725,451.7344 Q642.2725,451.7344 640.9443,450.0938 Q639.6318,448.4375 639.6318,445.3125 Q639.6318,442.1875 640.9443,440.5313 Q642.2725,438.875 644.7725,438.875 Q645.4756,438.875 646.1162,439.0313 Q646.7725,439.1875 647.335,439.4844 L647.335,442.2031 Q646.71,441.625 646.1162,441.3594 Q645.5225,441.0781 644.8975,441.0781 Q643.5537,441.0781 642.8662,442.1563 Q642.1787,443.2188 642.1787,445.3125 Q642.1787,447.4063 642.8662,448.4844 Q643.5537,449.5469 644.8975,449.5469 Q645.5225,449.5469 646.1162,449.2813 Q646.71,449 647.335,448.4219 L647.335,451.1406 Z " fill="#000000"/><text fill="#000000" font-family="sans-serif" font-size="14" lengthAdjust="spacing" textLength="94.6982" x="664.8662" y="450.3467">NLPProcessor</text><line style="stroke:#181818;stroke-width:0.5;" x1="552.5" x2="839.4307" y1="461.5" y2="461.5"/><line style="stroke:#181818;stroke-width:0.5;" x1="552.5" x2="839.4307" y1="469.5" y2="469.5"/><ellipse cx="562.5" cy="483.1484" fill="#84BE84" rx="3" ry="3" style="stroke:#038048;stroke-width:1;"/><text fill="#000000" font-family="sans-serif" font-size="14" lengthAdjust="spacing" textLength="262.9307" x="571.5" y="486.4951">analyze_text(text : str, category : str)</text></g><!--class GroupService--><g id="elem_GroupService"><rect codeLine="120" fill="#F1F1F1" height="80.5938" id="GroupService" rx="2.5" ry="2.5" style="stroke:#181818;stroke-width:0.5;" width="325.7627" x="943" y="232"/><ellipse cx="1054.2959" cy="248" fill="#ADD1B2" rx="11" ry="11" style="stroke:#181818;stroke-width:1;"/><path d="M1057.2646,253.6406 Q1056.6865,253.9375 1056.0459,254.0781 Q1055.4053,254.2344 1054.7021,254.2344 Q1052.2021,254.2344 1050.874,252.5938 Q1049.5615,250.9375 1049.5615,247.8125 Q1049.5615,244.6875 1050.874,243.0313 Q1052.2021,241.375 1054.7021,241.375 Q1055.4053,241.375 1056.0459,241.5313 Q1056.7021,241.6875 1057.2646,241.9844 L1057.2646,244.7031 Q1056.6396,244.125 1056.0459,243.8594 Q1055.4521,243.5781 1054.8271,243.5781 Q1053.4834,243.5781 1052.7959,244.6563 Q1052.1084,245.7188 1052.1084,247.8125 Q1052.1084,249.9063 1052.7959,250.9844 Q1053.4834,252.0469 1054.8271,252.0469 Q1055.4521,252.0469 1056.0459,251.7813 Q1056.6396,251.5 1057.2646,250.9219 L1057.2646,253.6406 Z " fill="#000000"/><text fill="#000000" font-family="sans-serif" font-size="14" lengthAdjust="spacing" textLength="94.6709" x="1074.7959" y="252.8467">GroupService</text><line style="stroke:#181818;stroke-width:0.5;" x1="944" x2="1267.7627" y1="264" y2="264"/><line style="stroke:#181818;stroke-width:0.5;" x1="944" x2="1267.7627" y1="272" y2="272"/><ellipse cx="954" cy="285.6484" fill="#84BE84" rx="3" ry="3" style="stroke:#038048;stroke-width:1;"/><text fill="#000000" font-family="sans-serif" font-size="14" lengthAdjust="spacing" textLength="148.4766" x="963" y="288.9951">get_categories() : list</text><ellipse cx="954" cy="301.9453" fill="#84BE84" rx="3" ry="3" style="stroke:#038048;stroke-width:1;"/><text fill="#000000" font-family="sans-serif" font-size="14" lengthAdjust="spacing" textLength="299.7627" x="963" y="305.292">get_flashcards_by_category(category : str)</text></g><!--class LearningService--><g id="elem_LearningService"><rect codeLine="124" fill="#F1F1F1" height="64.2969" id="LearningService" rx="2.5" ry="2.5" style="stroke:#181818;stroke-width:0.5;" width="241.4346" x="1692.5" y="240.5"/><ellipse cx="1752.4614" cy="256.5" fill="#ADD1B2" rx="11" ry="11" style="stroke:#181818;stroke-width:1;"/><path d="M1755.4302,262.1406 Q1754.8521,262.4375 1754.2114,262.5781 Q1753.5708,262.7344 1752.8677,262.7344 Q1750.3677,262.7344 1749.0396,261.0938 Q1747.7271,259.4375 1747.7271,256.3125 Q1747.7271,253.1875 1749.0396,251.5313 Q1750.3677,249.875 1752.8677,249.875 Q1753.5708,249.875 1754.2114,250.0313 Q1754.8677,250.1875 1755.4302,250.4844 L1755.4302,253.2031 Q1754.8052,252.625 1754.2114,252.3594 Q1753.6177,252.0781 1752.9927,252.0781 Q1751.6489,252.0781 1750.9614,253.1563 Q1750.2739,254.2188 1750.2739,256.3125 Q1750.2739,258.4063 1750.9614,259.4844 Q1751.6489,260.5469 1752.9927,260.5469 Q1753.6177,260.5469 1754.2114,260.2813 Q1754.8052,260 1755.4302,259.4219 L1755.4302,262.1406 Z " fill="#000000"/><text fill="#000000" font-family="sans-serif" font-size="14" lengthAdjust="spacing" textLength="113.0117" x="1772.9614" y="261.3467">LearningService</text><line style="stroke:#181818;stroke-width:0.5;" x1="1693.5" x2="1932.9346" y1="272.5" y2="272.5"/><line style="stroke:#181818;stroke-width:0.5;" x1="1693.5" x2="1932.9346" y1="280.5" y2="280.5"/><ellipse cx="1703.5" cy="294.1484" fill="#84BE84" rx="3" ry="3" style="stroke:#038048;stroke-width:1;"/><text fill="#000000" font-family="sans-serif" font-size="14" lengthAdjust="spacing" textLength="215.4346" x="1712.5" y="297.4951">get_next_flashcard(flashcards)</text></g><!--class CategoryContextMixin--><g id="elem_CategoryContextMixin"><rect codeLine="143" fill="#F1F1F1" height="64.2969" id="CategoryContextMixin" rx="2.5" ry="2.5" style="stroke:#181818;stroke-width:0.5;" width="188.0576" x="1073" y="84"/><ellipse cx="1088" cy="100" fill="#ADD1B2" rx="11" ry="11" style="stroke:#181818;stroke-width:1;"/><path d="M1090.9688,105.6406 Q1090.3906,105.9375 1089.75,106.0781 Q1089.1094,106.2344 1088.4063,106.2344 Q1085.9063,106.2344 1084.5781,104.5938 Q1083.2656,102.9375 1083.2656,99.8125 Q1083.2656,96.6875 1084.5781,95.0313 Q1085.9063,93.375 1088.4063,93.375 Q1089.1094,93.375 1089.75,93.5313 Q1090.4063,93.6875 1090.9688,93.9844 L1090.9688,96.7031 Q1090.3438,96.125 1089.75,95.8594 Q1089.1563,95.5781 1088.5313,95.5781 Q1087.1875,95.5781 1086.5,96.6563 Q1085.8125,97.7188 1085.8125,99.8125 Q1085.8125,101.9063 1086.5,102.9844 Q1087.1875,104.0469 1088.5313,104.0469 Q1089.1563,104.0469 1089.75,103.7813 Q1090.3438,103.5 1090.9688,102.9219 L1090.9688,105.6406 Z " fill="#000000"/><text fill="#000000" font-family="sans-serif" font-size="14" lengthAdjust="spacing" textLength="156.0576" x="1102" y="104.8467">CategoryContextMixin</text><line style="stroke:#181818;stroke-width:0.5;" x1="1074" x2="1260.0576" y1="116" y2="116"/><line style="stroke:#181818;stroke-width:0.5;" x1="1074" x2="1260.0576" y1="124" y2="124"/><ellipse cx="1084" cy="137.6484" fill="#84BE84" rx="3" ry="3" style="stroke:#038048;stroke-width:1;"/><text fill="#000000" font-family="sans-serif" font-size="14" lengthAdjust="spacing" textLength="114.2969" x="1093" y="140.9951">get_categories()</text></g><!--class FlashcardSuccessMessageMixin--><g id="elem_FlashcardSuccessMessageMixin"><rect codeLine="146" fill="#F1F1F1" height="48" id="FlashcardSuccessMessageMixin" rx="2.5" ry="2.5" style="stroke:#181818;stroke-width:0.5;" width="254.3389" x="2546" y="92"/><ellipse cx="2561" cy="108" fill="#ADD1B2" rx="11" ry="11" style="stroke:#181818;stroke-width:1;"/><path d="M2563.9688,113.6406 Q2563.3906,113.9375 2562.75,114.0781 Q2562.1094,114.2344 2561.4063,114.2344 Q2558.9063,114.2344 2557.5781,112.5938 Q2556.2656,110.9375 2556.2656,107.8125 Q2556.2656,104.6875 2557.5781,103.0313 Q2558.9063,101.375 2561.4063,101.375 Q2562.1094,101.375 2562.75,101.5313 Q2563.4063,101.6875 2563.9688,101.9844 L2563.9688,104.7031 Q2563.3438,104.125 2562.75,103.8594 Q2562.1563,103.5781 2561.5313,103.5781 Q2560.1875,103.5781 2559.5,104.6563 Q2558.8125,105.7188 2558.8125,107.8125 Q2558.8125,109.9063 2559.5,110.9844 Q2560.1875,112.0469 2561.5313,112.0469 Q2562.1563,112.0469 2562.75,111.7813 Q2563.3438,111.5 2563.9688,110.9219 L2563.9688,113.6406 Z " fill="#000000"/><text fill="#000000" font-family="sans-serif" font-size="14" lengthAdjust="spacing" textLength="222.3389" x="2575" y="112.8467">FlashcardSuccessMessageMixin</text><line style="stroke:#181818;stroke-width:0.5;" x1="2547" x2="2799.3389" y1="124" y2="124"/><line style="stroke:#181818;stroke-width:0.5;" x1="2547" x2="2799.3389" y1="132" y2="132"/></g><!--class FlashcardListView--><g id="elem_FlashcardListView"><rect codeLine="148" fill="#F1F1F1" height="48" id="FlashcardListView" rx="2.5" ry="2.5" style="stroke:#181818;stroke-width:0.5;" width="157.6104" x="880" y="92"/><ellipse cx="895" cy="108" fill="#ADD1B2" rx="11" ry="11" style="stroke:#181818;stroke-width:1;"/><path d="M897.9688,113.6406 Q897.3906,113.9375 896.75,114.0781 Q896.1094,114.2344 895.4063,114.2344 Q892.9063,114.2344 891.5781,112.5938 Q890.2656,110.9375 890.2656,107.8125 Q890.2656,104.6875 891.5781,103.0313 Q892.9063,101.375 895.4063,101.375 Q896.1094,101.375 896.75,101.5313 Q897.4063,101.6875 897.9688,101.9844 L897.9688,104.7031 Q897.3438,104.125 896.75,103.8594 Q896.1563,103.5781 895.5313,103.5781 Q894.1875,103.5781 893.5,104.6563 Q892.8125,105.7188 892.8125,107.8125 Q892.8125,109.9063 893.5,110.9844 Q894.1875,112.0469 895.5313,112.0469 Q896.1563,112.0469 896.75,111.7813 Q897.3438,111.5 897.9688,110.9219 L897.9688,113.6406 Z " fill="#000000"/><text fill="#000000" font-family="sans-serif" font-size="14" lengthAdjust="spacing" textLength="125.6104" x="909" y="112.8467">FlashcardListView</text><line style="stroke:#181818;stroke-width:0.5;" x1="881" x2="1036.6104" y1="124" y2="124"/><line style="stroke:#181818;stroke-width:0.5;" x1="881" x2="1036.6104" y1="132" y2="132"/></g><!--class AddFlashcardView--><g id="elem_AddFlashcardView"><rect codeLine="149" fill="#F1F1F1" height="48" id="AddFlashcardView" rx="2.5" ry="2.5" style="stroke:#181818;stroke-width:0.5;" width="160.4883" x="1720" y="92"/><ellipse cx="1735" cy="108" fill="#ADD1B2" rx="11" ry="11" style="stroke:#181818;stroke-width:1;"/><path d="M1737.9688,113.6406 Q1737.3906,113.9375 1736.75,114.0781 Q1736.1094,114.2344 1735.4063,114.2344 Q1732.9063,114.2344 1731.5781,112.5938 Q1730.2656,110.9375 1730.2656,107.8125 Q1730.2656,104.6875 1731.5781,103.0313 Q1732.9063,101.375 1735.4063,101.375 Q1736.1094,101.375 1736.75,101.5313 Q1737.4063,101.6875 1737.9688,101.9844 L1737.9688,104.7031 Q1737.3438,104.125 1736.75,103.8594 Q1736.1563,103.5781 1735.5313,103.5781 Q1734.1875,103.5781 1733.5,104.6563 Q1732.8125,105.7188 1732.8125,107.8125 Q1732.8125,109.9063 1733.5,110.9844 Q1734.1875,112.0469 1735.5313,112.0469 Q1736.1563,112.0469 1736.75,111.7813 Q1737.3438,111.5 1737.9688,110.9219 L1737.9688,113.6406 Z " fill="#000000"/><text fill="#000000" font-family="sans-serif" font-size="14" lengthAdjust="spacing" textLength="128.4883" x="1749" y="112.8467">AddFlashcardView</text><line style="stroke:#181818;stroke-width:0.5;" x1="1721" x2="1879.4883" y1="124" y2="124"/><line style="stroke:#181818;stroke-width:0.5;" x1="1721" x2="1879.4883" y1="132" y2="132"/></g><!--class EditFlashcardView--><g id="elem_EditFlashcardView"><rect codeLine="150" fill="#F1F1F1" height="48" id="EditFlashcardView" rx="2.5" ry="2.5" style="stroke:#181818;stroke-width:0.5;" width="160.249" x="2136" y="92"/><ellipse cx="2151" cy="108" fill="#ADD1B2" rx="11" ry="11" style="stroke:#181818;stroke-width:1;"/><path d="M2153.9688,113.6406 Q2153.3906,113.9375 2152.75,114.0781 Q2152.1094,114.2344 2151.4063,114.2344 Q2148.9063,114.2344 2147.5781,112.5938 Q2146.2656,110.9375 2146.2656,107.8125 Q2146.2656,104.6875 2147.5781,103.0313 Q2148.9063,101.375 2151.4063,101.375 Q2152.1094,101.375 2152.75,101.5313 Q2153.4063,101.6875 2153.9688,101.9844 L2153.9688,104.7031 Q2153.3438,104.125 2152.75,103.8594 Q2152.1563,103.5781 2151.5313,103.5781 Q2150.1875,103.5781 2149.5,104.6563 Q2148.8125,105.7188 2148.8125,107.8125 Q2148.8125,109.9063 2149.5,110.9844 Q2150.1875,112.0469 2151.5313,112.0469 Q2152.1563,112.0469 2152.75,111.7813 Q2153.3438,111.5 2153.9688,110.9219 L2153.9688,113.6406 Z " fill="#000000"/><text fill="#000000" font-family="sans-serif" font-size="14" lengthAdjust="spacing" textLength="128.249" x="2165" y="112.8467">EditFlashcardView</text><line style="stroke:#181818;stroke-width:0.5;" x1="2137" x2="2295.249" y1="124" y2="124"/><line style="stroke:#181818;stroke-width:0.5;" x1="2137" x2="2295.249" y1="132" y2="132"/></g><!--class DeleteFlashcardView--><g id="elem_DeleteFlashcardView"><rect codeLine="151" fill="#F1F1F1" height="48" id="DeleteFlashcardView" rx="2.5" ry="2.5" style="stroke:#181818;stroke-width:0.5;" width="179.1367" x="2331.5" y="92"/><ellipse cx="2346.5" cy="108" fill="#ADD1B2" rx="11" ry="11" style="stroke:#181818;stroke-width:1;"/><path d="M2349.4688,113.6406 Q2348.8906,113.9375 2348.25,114.0781 Q2347.6094,114.2344 2346.9063,114.2344 Q2344.4063,114.2344 2343.0781,112.5938 Q2341.7656,110.9375 2341.7656,107.8125 Q2341.7656,104.6875 2343.0781,103.0313 Q2344.4063,101.375 2346.9063,101.375 Q2347.6094,101.375 2348.25,101.5313 Q2348.9063,101.6875 2349.4688,101.9844 L2349.4688,104.7031 Q2348.8438,104.125 2348.25,103.8594 Q2347.6563,103.5781 2347.0313,103.5781 Q2345.6875,103.5781 2345,104.6563 Q2344.3125,105.7188 2344.3125,107.8125 Q2344.3125,109.9063 2345,110.9844 Q2345.6875,112.0469 2347.0313,112.0469 Q2347.6563,112.0469 2348.25,111.7813 Q2348.8438,111.5 2349.4688,110.9219 L2349.4688,113.6406 Z " fill="#000000"/><text fill="#000000" font-family="sans-serif" font-size="14" lengthAdjust="spacing" textLength="147.1367" x="2360.5" y="112.8467">DeleteFlashcardView</text><line style="stroke:#181818;stroke-width:0.5;" x1="2332.5" x2="2509.6367" y1="124" y2="124"/><line style="stroke:#181818;stroke-width:0.5;" x1="2332.5" x2="2509.6367" y1="132" y2="132"/></g><!--class DisplayFlashcardView--><g id="elem_DisplayFlashcardView"><rect codeLine="152" fill="#F1F1F1" height="48" id="DisplayFlashcardView" rx="2.5" ry="2.5" style="stroke:#181818;stroke-width:0.5;" width="184.7422" x="1915.5" y="92"/><ellipse cx="1930.5" cy="108" fill="#ADD1B2" rx="11" ry="11" style="stroke:#181818;stroke-width:1;"/><path d="M1933.4688,113.6406 Q1932.8906,113.9375 1932.25,114.0781 Q1931.6094,114.2344 1930.9063,114.2344 Q1928.4063,114.2344 1927.0781,112.5938 Q1925.7656,110.9375 1925.7656,107.8125 Q1925.7656,104.6875 1927.0781,103.0313 Q1928.4063,101.375 1930.9063,101.375 Q1931.6094,101.375 1932.25,101.5313 Q1932.9063,101.6875 1933.4688,101.9844 L1933.4688,104.7031 Q1932.8438,104.125 1932.25,103.8594 Q1931.6563,103.5781 1931.0313,103.5781 Q1929.6875,103.5781 1929,104.6563 Q1928.3125,105.7188 1928.3125,107.8125 Q1928.3125,109.9063 1929,110.9844 Q1929.6875,112.0469 1931.0313,112.0469 Q1931.6563,112.0469 1932.25,111.7813 Q1932.8438,111.5 1933.4688,110.9219 L1933.4688,113.6406 Z " fill="#000000"/><text fill="#000000" font-family="sans-serif" font-size="14" lengthAdjust="spacing" textLength="152.7422" x="1944.5" y="112.8467">DisplayFlashcardView</text><line style="stroke:#181818;stroke-width:0.5;" x1="1916.5" x2="2099.2422" y1="124" y2="124"/><line style="stroke:#181818;stroke-width:0.5;" x1="1916.5" x2="2099.2422" y1="132" y2="132"/></g><!--class FlashcardAudioView--><g id="elem_FlashcardAudioView"><rect codeLine="153" fill="#F1F1F1" height="48" id="FlashcardAudioView" rx="2.5" ry="2.5" style="stroke:#181818;stroke-width:0.5;" width="172.9297" x="1296.5" y="92"/><ellipse cx="1311.5" cy="108" fill="#ADD1B2" rx="11" ry="11" style="stroke:#181818;stroke-width:1;"/><path d="M1314.4688,113.6406 Q1313.8906,113.9375 1313.25,114.0781 Q1312.6094,114.2344 1311.9063,114.2344 Q1309.4063,114.2344 1308.0781,112.5938 Q1306.7656,110.9375 1306.7656,107.8125 Q1306.7656,104.6875 1308.0781,103.0313 Q1309.4063,101.375 1311.9063,101.375 Q1312.6094,101.375 1313.25,101.5313 Q1313.9063,101.6875 1314.4688,101.9844 L1314.4688,104.7031 Q1313.8438,104.125 1313.25,103.8594 Q1312.6563,103.5781 1312.0313,103.5781 Q1310.6875,103.5781 1310,104.6563 Q1309.3125,105.7188 1309.3125,107.8125 Q1309.3125,109.9063 1310,110.9844 Q1310.6875,112.0469 1312.0313,112.0469 Q1312.6563,112.0469 1313.25,111.7813 Q1313.8438,111.5 1314.4688,110.9219 L1314.4688,113.6406 Z " fill="#000000"/><text fill="#000000" font-family="sans-serif" font-size="14" lengthAdjust="spacing" textLength="140.9297" x="1325.5" y="112.8467">FlashcardAudioView</text><line style="stroke:#181818;stroke-width:0.5;" x1="1297.5" x2="1468.4297" y1="124" y2="124"/><line style="stroke:#181818;stroke-width:0.5;" x1="1297.5" x2="1468.4297" y1="132" y2="132"/></g><!--class LearnFlashcardsView--><g id="elem_LearnFlashcardsView"><rect codeLine="154" fill="#F1F1F1" height="48" id="LearnFlashcardsView" rx="2.5" ry="2.5" style="stroke:#181818;stroke-width:0.5;" width="180.0527" x="1505" y="92"/><ellipse cx="1520" cy="108" fill="#ADD1B2" rx="11" ry="11" style="stroke:#181818;stroke-width:1;"/><path d="M1522.9688,113.6406 Q1522.3906,113.9375 1521.75,114.0781 Q1521.1094,114.2344 1520.4063,114.2344 Q1517.9063,114.2344 1516.5781,112.5938 Q1515.2656,110.9375 1515.2656,107.8125 Q1515.2656,104.6875 1516.5781,103.0313 Q1517.9063,101.375 1520.4063,101.375 Q1521.1094,101.375 1521.75,101.5313 Q1522.4063,101.6875 1522.9688,101.9844 L1522.9688,104.7031 Q1522.3438,104.125 1521.75,103.8594 Q1521.1563,103.5781 1520.5313,103.5781 Q1519.1875,103.5781 1518.5,104.6563 Q1517.8125,105.7188 1517.8125,107.8125 Q1517.8125,109.9063 1518.5,110.9844 Q1519.1875,112.0469 1520.5313,112.0469 Q1521.1563,112.0469 1521.75,111.7813 Q1522.3438,111.5 1522.9688,110.9219 L1522.9688,113.6406 Z " fill="#000000"/><text fill="#000000" font-family="sans-serif" font-size="14" lengthAdjust="spacing" textLength="148.0527" x="1534" y="112.8467">LearnFlashcardsView</text><line style="stroke:#181818;stroke-width:0.5;" x1="1506" x2="1684.0527" y1="124" y2="124"/><line style="stroke:#181818;stroke-width:0.5;" x1="1506" x2="1684.0527" y1="132" y2="132"/></g><!--class OCRResultsView--><g id="elem_OCRResultsView"><rect codeLine="155" fill="#F1F1F1" height="48" id="OCRResultsView" rx="2.5" ry="2.5" style="stroke:#181818;stroke-width:0.5;" width="147.2334" x="697.5" y="92"/><ellipse cx="712.5" cy="108" fill="#ADD1B2" rx="11" ry="11" style="stroke:#181818;stroke-width:1;"/><path d="M715.4688,113.6406 Q714.8906,113.9375 714.25,114.0781 Q713.6094,114.2344 712.9063,114.2344 Q710.4063,114.2344 709.0781,112.5938 Q707.7656,110.9375 707.7656,107.8125 Q707.7656,104.6875 709.0781,103.0313 Q710.4063,101.375 712.9063,101.375 Q713.6094,101.375 714.25,101.5313 Q714.9063,101.6875 715.4688,101.9844 L715.4688,104.7031 Q714.8438,104.125 714.25,103.8594 Q713.6563,103.5781 713.0313,103.5781 Q711.6875,103.5781 711,104.6563 Q710.3125,105.7188 710.3125,107.8125 Q710.3125,109.9063 711,110.9844 Q711.6875,112.0469 713.0313,112.0469 Q713.6563,112.0469 714.25,111.7813 Q714.8438,111.5 715.4688,110.9219 L715.4688,113.6406 Z " fill="#000000"/><text fill="#000000" font-family="sans-serif" font-size="14" lengthAdjust="spacing" textLength="115.2334" x="726.5" y="112.8467">OCRResultsView</text><line style="stroke:#181818;stroke-width:0.5;" x1="698.5" x2="843.7334" y1="124" y2="124"/><line style="stroke:#181818;stroke-width:0.5;" x1="698.5" x2="843.7334" y1="132" y2="132"/></g><!--class SaveFlashcardsView--><g id="elem_SaveFlashcardsView"><rect codeLine="156" fill="#F1F1F1" height="48" id="SaveFlashcardsView" rx="2.5" ry="2.5" style="stroke:#181818;stroke-width:0.5;" width="174.7959" x="2835.5" y="92"/><ellipse cx="2850.5" cy="108" fill="#ADD1B2" rx="11" ry="11" style="stroke:#181818;stroke-width:1;"/><path d="M2853.4688,113.6406 Q2852.8906,113.9375 2852.25,114.0781 Q2851.6094,114.2344 2850.9063,114.2344 Q2848.4063,114.2344 2847.0781,112.5938 Q2845.7656,110.9375 2845.7656,107.8125 Q2845.7656,104.6875 2847.0781,103.0313 Q2848.4063,101.375 2850.9063,101.375 Q2851.6094,101.375 2852.25,101.5313 Q2852.9063,101.6875 2853.4688,101.9844 L2853.4688,104.7031 Q2852.8438,104.125 2852.25,103.8594 Q2851.6563,103.5781 2851.0313,103.5781 Q2849.6875,103.5781 2849,104.6563 Q2848.3125,105.7188 2848.3125,107.8125 Q2848.3125,109.9063 2849,110.9844 Q2849.6875,112.0469 2851.0313,112.0469 Q2851.6563,112.0469 2852.25,111.7813 Q2852.8438,111.5 2853.4688,110.9219 L2853.4688,113.6406 Z " fill="#000000"/><text fill="#000000" font-family="sans-serif" font-size="14" lengthAdjust="spacing" textLength="142.7959" x="2864.5" y="112.8467">SaveFlashcardsView</text><line style="stroke:#181818;stroke-width:0.5;" x1="2836.5" x2="3009.2959" y1="124" y2="124"/><line style="stroke:#181818;stroke-width:0.5;" x1="2836.5" x2="3009.2959" y1="132" y2="132"/></g><!--class GenerateFromTextView--><g id="elem_GenerateFromTextView"><rect codeLine="157" fill="#F1F1F1" height="48" id="GenerateFromTextView" rx="2.5" ry="2.5" style="stroke:#181818;stroke-width:0.5;" width="197.8672" x="274" y="92"/><ellipse cx="289" cy="108" fill="#ADD1B2" rx="11" ry="11" style="stroke:#181818;stroke-width:1;"/><path d="M291.9688,113.6406 Q291.3906,113.9375 290.75,114.0781 Q290.1094,114.2344 289.4063,114.2344 Q286.9063,114.2344 285.5781,112.5938 Q284.2656,110.9375 284.2656,107.8125 Q284.2656,104.6875 285.5781,103.0313 Q286.9063,101.375 289.4063,101.375 Q290.1094,101.375 290.75,101.5313 Q291.4063,101.6875 291.9688,101.9844 L291.9688,104.7031 Q291.3438,104.125 290.75,103.8594 Q290.1563,103.5781 289.5313,103.5781 Q288.1875,103.5781 287.5,104.6563 Q286.8125,105.7188 286.8125,107.8125 Q286.8125,109.9063 287.5,110.9844 Q288.1875,112.0469 289.5313,112.0469 Q290.1563,112.0469 290.75,111.7813 Q291.3438,111.5 291.9688,110.9219 L291.9688,113.6406 Z " fill="#000000"/><text fill="#000000" font-family="sans-serif" font-size="14" lengthAdjust="spacing" textLength="165.8672" x="303" y="112.8467">GenerateFromTextView</text><line style="stroke:#181818;stroke-width:0.5;" x1="275" x2="470.8672" y1="124" y2="124"/><line style="stroke:#181818;stroke-width:0.5;" x1="275" x2="470.8672" y1="132" y2="132"/></g><!--class UploadPhotoView--><g id="elem_UploadPhotoView"><rect codeLine="158" fill="#F1F1F1" height="48" id="UploadPhotoView" rx="2.5" ry="2.5" style="stroke:#181818;stroke-width:0.5;" width="154.5205" x="507.5" y="92"/><ellipse cx="522.5" cy="108" fill="#ADD1B2" rx="11" ry="11" style="stroke:#181818;stroke-width:1;"/><path d="M525.4688,113.6406 Q524.8906,113.9375 524.25,114.0781 Q523.6094,114.2344 522.9063,114.2344 Q520.4063,114.2344 519.0781,112.5938 Q517.7656,110.9375 517.7656,107.8125 Q517.7656,104.6875 519.0781,103.0313 Q520.4063,101.375 522.9063,101.375 Q523.6094,101.375 524.25,101.5313 Q524.9063,101.6875 525.4688,101.9844 L525.4688,104.7031 Q524.8438,104.125 524.25,103.8594 Q523.6563,103.5781 523.0313,103.5781 Q521.6875,103.5781 521,104.6563 Q520.3125,105.7188 520.3125,107.8125 Q520.3125,109.9063 521,110.9844 Q521.6875,112.0469 523.0313,112.0469 Q523.6563,112.0469 524.25,111.7813 Q524.8438,111.5 525.4688,110.9219 L525.4688,113.6406 Z " fill="#000000"/><text fill="#000000" font-family="sans-serif" font-size="14" lengthAdjust="spacing" textLength="122.5205" x="536.5" y="112.8467">UploadPhotoView</text><line style="stroke:#181818;stroke-width:0.5;" x1="508.5" x2="661.0205" y1="124" y2="124"/><line style="stroke:#181818;stroke-width:0.5;" x1="508.5" x2="661.0205" y1="132" y2="132"/></g><!--reverse link FlashcardDecorator to Flashcard--><g id="link_FlashcardDecorator_Flashcard"><path codeLine="32" d="M2764.5708,514.6999 C2744.5508,523.0299 2734.79,526.74 2715,534 C2559.82,590.96 2377.24,645.73 2258.75,679.71 " fill="none" id="FlashcardDecorator-backto-Flashcard" style="stroke:#181818;stroke-width:1;"/><polygon fill="none" points="2775.65,510.09,2768.5738,508.7019,2764.5708,514.6999,2771.647,516.088,2775.65,510.09" style="stroke:#181818;stroke-width:1;"/></g><!--link FlashcardAdmin to Flashcard--><g id="link_FlashcardAdmin_Flashcard"><path codeLine="42" d="M2551.45,493.5 C2525.17,513.41 2489.45,539.16 2456,559 C2392.86,596.44 2324.7924,629.9657 2263.9624,657.9057 " fill="none" id="FlashcardAdmin-to-Flashcard" style="stroke:#181818;stroke-width:1;stroke-dasharray:7.0,7.0;"/><polygon fill="#181818" points="2258.51,660.41,2268.3581,660.2884,2263.0536,658.323,2265.019,653.0186,2258.51,660.41" style="stroke:#181818;stroke-width:1;"/><text fill="#000000" font-family="sans-serif" font-size="13" lengthAdjust="spacing" textLength="71.6714" x="2483" y="555.0669">depends</text></g><!--link FlashcardForm to Flashcard--><g id="link_FlashcardForm_Flashcard"><path codeLine="57" d="M2142.3,313.3 C2149.15,323.02 2155.32,333.85 2159,345 C2187.43,431.09 2178.1407,528.5473 2162.9907,604.0273 " fill="none" id="FlashcardForm-to-Flashcard" style="stroke:#181818;stroke-width:1;stroke-dasharray:7.0,7.0;"/><polygon fill="#181818" points="2161.81,609.91,2167.5029,601.8732,2162.794,605.0078,2159.6593,600.2988,2161.81,609.91" style="stroke:#181818;stroke-width:1;"/><text fill="#000000" font-family="sans-serif" font-size="13" lengthAdjust="spacing" textLength="71.6714" x="2177" y="466.0669">depends</text></g><!--link TextRenderer to FlashcardRenderer--><g id="link_TextRenderer_FlashcardRenderer"><path codeLine="79" d="M1482,493.65 C1482,542.11 1482,617 1482,665.42 " fill="none" id="TextRenderer-to-FlashcardRenderer" style="stroke:#181818;stroke-width:1;"/><polygon fill="none" points="1482,683.42,1488,665.42,1476,665.42,1482,683.42" style="stroke:#181818;stroke-width:1;"/></g><!--link AudioRenderer to FlashcardRenderer--><g id="link_AudioRenderer_FlashcardRenderer"><path codeLine="80" d="M1120.06,493.65 C1199.48,542.11 1336.3448,625.624 1415.6948,674.044 " fill="none" id="AudioRenderer-to-FlashcardRenderer" style="stroke:#181818;stroke-width:1;"/><polygon fill="none" points="1431.06,683.42,1418.8201,668.9223,1412.5694,679.1658,1431.06,683.42" style="stroke:#181818;stroke-width:1;"/></g><!--link TextRenderer to Flashcard--><g id="link_TextRenderer_Flashcard"><path codeLine="83" d="M1556.01,493.66 C1593.68,508.24 1640.58,524.45 1684,534 C1721.49,542.25 1732.14,535.68 1770,542 C1801.58,547.27 1808.37,554.04 1840,559 C1864.21,562.79 1927.19,558.04 1950,567 C1976.3,577.33 1996.9495,589.2411 2020.1595,606.3411 " fill="none" id="TextRenderer-to-Flashcard" style="stroke:#181818;stroke-width:1;stroke-dasharray:7.0,7.0;"/><polygon fill="#181818" points="2024.99,609.9,2020.1168,601.3413,2020.9645,606.9342,2015.3716,607.782,2024.99,609.9" style="stroke:#181818;stroke-width:1;"/><text fill="#000000" font-family="sans-serif" font-size="13" lengthAdjust="spacing" textLength="71.6714" x="1841" y="555.0669">depends</text></g><!--link AudioRenderer to Flashcard--><g id="link_AudioRenderer_Flashcard"><path codeLine="84" d="M1143.1,493.66 C1183.16,508.92 1233.94,525.75 1281,534 C1361.57,548.12 1569.03,524.8 1649,542 C1667.89,546.06 1670.13,554.86 1689,559 C1717.34,565.23 1922.78,556.96 1950,567 C1976.99,576.95 1998.1929,588.9765 2021.7629,606.3765 " fill="none" id="AudioRenderer-to-Flashcard" style="stroke:#181818;stroke-width:1;stroke-dasharray:7.0,7.0;"/><polygon fill="#181818" points="2026.59,609.94,2021.725,601.3766,2022.5674,606.9704,2016.9736,607.8128,2026.59,609.94" style="stroke:#181818;stroke-width:1;"/><text fill="#000000" font-family="sans-serif" font-size="13" lengthAdjust="spacing" textLength="71.6714" x="1690" y="555.0669">depends</text></g><!--link RendererFactory to TextRenderer--><g id="link_RendererFactory_TextRenderer"><path codeLine="90" d="M1481.17,304.8 C1481.35,339.42 1481.6187,388.8701 1481.7987,423.4101 " fill="none" id="RendererFactory-to-TextRenderer" style="stroke:#181818;stroke-width:1;stroke-dasharray:7.0,7.0;"/><polygon fill="#181818" points="1481.83,429.41,1485.783,420.3893,1481.8039,424.4101,1477.7832,420.431,1481.83,429.41" style="stroke:#181818;stroke-width:1;"/><text fill="#000000" font-family="sans-serif" font-size="13" lengthAdjust="spacing" textLength="64.2319" x="1482" y="358.0669">creates</text></g><!--link RendererFactory to AudioRenderer--><g id="link_RendererFactory_AudioRenderer"><path codeLine="91" d="M1412.5,304.59 C1336.19,339.23 1219.0135,392.4102 1142.7835,427.0102 " fill="none" id="RendererFactory-to-AudioRenderer" style="stroke:#181818;stroke-width:1;stroke-dasharray:7.0,7.0;"/><polygon fill="#181818" points="1137.32,429.49,1147.1686,429.4126,1141.873,427.4235,1143.8621,422.1279,1137.32,429.49" style="stroke:#181818;stroke-width:1;"/><text fill="#000000" font-family="sans-serif" font-size="13" lengthAdjust="spacing" textLength="64.2319" x="1312" y="358.0669">creates</text></g><!--reverse link FlashcardStandard to Flashcard--><g id="link_FlashcardStandard_Flashcard"><path codeLine="101" d="M1887.601,517.4653 C1910.151,535.3053 1926.57,548.33 1950,567 C1969.21,582.31 1989.53,598.54 2009.37,614.43 " fill="none" id="FlashcardStandard-backto-Flashcard" style="stroke:#181818;stroke-width:1;"/><polygon fill="none" points="1878.19,510.02,1880.4137,516.8797,1887.601,517.4653,1885.3773,510.6057,1878.19,510.02" style="stroke:#181818;stroke-width:1;"/></g><!--reverse link FlashcardStandard to FlashcardRenderer--><g id="link_FlashcardStandard_FlashcardRenderer"><path codeLine="102" d="M1726.7595,515.49 C1709.5195,524.36 1701.81,527.41 1684,534 C1668.63,539.69 1662.29,533.98 1648,542 C1585.12,577.31 1531.23,643.99 1503.02,683.3 " fill="none" id="FlashcardStandard-backto-FlashcardRenderer" style="stroke:#181818;stroke-width:1;"/><polygon fill="none" points="1737.43,510,1730.2647,509.1882,1726.7595,515.49,1733.9247,516.3018,1737.43,510" style="stroke:#181818;stroke-width:1;"/></g><!--link FlashcardFacade to OCRProcessor--><g id="link_FlashcardFacade_OCRProcessor"><path codeLine="129" d="M554.41,313.16 C495.52,344.89 418.6218,386.3336 359.7618,418.0536 " fill="none" id="FlashcardFacade-to-OCRProcessor" style="stroke:#181818;stroke-width:1;stroke-dasharray:7.0,7.0;"/><polygon fill="#181818" points="354.48,420.9,364.3004,420.1516,358.8815,418.528,360.5052,413.1091,354.48,420.9" style="stroke:#181818;stroke-width:1;"/></g><!--link FlashcardFacade to NLPProcessor--><g id="link_FlashcardFacade_NLPProcessor"><path codeLine="130" d="M642.42,313.16 C655.01,347.79 670.989,391.7214 682.589,423.6114 " fill="none" id="FlashcardFacade-to-NLPProcessor" style="stroke:#181818;stroke-width:1;stroke-dasharray:7.0,7.0;"/><polygon fill="#181818" points="684.64,429.25,685.3225,419.4248,682.9308,424.5512,677.8044,422.1595,684.64,429.25" style="stroke:#181818;stroke-width:1;"/></g><!--link FlashcardFacade to Flashcard--><g id="link_FlashcardFacade_Flashcard"><path codeLine="131" d="M785.19,313.05 C830.35,322.76 879.87,331.84 926,337 C982.68,343.34 1908.17,333.51 1952,370 C2009.74,418.08 1963.25,465.01 1993,534 C2004.34,560.29 2016.8896,581.2405 2034.1996,604.7205 " fill="none" id="FlashcardFacade-to-Flashcard" style="stroke:#181818;stroke-width:1;stroke-dasharray:7.0,7.0;"/><polygon fill="#181818" points="2037.76,609.55,2035.6391,599.9322,2034.793,605.5255,2029.1998,604.6794,2037.76,609.55" style="stroke:#181818;stroke-width:1;"/></g><!--link OCRProcessor to Flashcard--><g id="link_OCRProcessor_Flashcard"><path codeLine="132" d="M397.43,502.04 C439.9,514.69 488.64,527.17 534,534 C535.22,534.18 1948.84,566.58 1950,567 C1977.12,576.88 1998.4344,588.9444 2022.0644,606.4044 " fill="none" id="OCRProcessor-to-Flashcard" style="stroke:#181818;stroke-width:1;stroke-dasharray:7.0,7.0;"/><polygon fill="#181818" points="2026.89,609.97,2022.0287,601.4045,2022.8687,606.9987,2017.2745,607.8387,2026.89,609.97" style="stroke:#181818;stroke-width:1;"/></g><!--link NLPProcessor to Flashcard--><g id="link_NLPProcessor_Flashcard"><path codeLine="133" d="M751.45,493.68 C781.88,509.05 820.89,525.97 858,534 C899.49,542.98 1581.75,528.51 1622,542 C1634.05,546.04 1632.98,554.86 1645,559 C1709.11,581.06 1886.33,543.69 1950,567 C1977.01,576.89 1998.2209,588.8991 2021.7909,606.2791 " fill="none" id="NLPProcessor-to-Flashcard" style="stroke:#181818;stroke-width:1;stroke-dasharray:7.0,7.0;"/><polygon fill="#181818" points="2026.62,609.84,2021.7503,601.2793,2022.5958,606.8726,2017.0024,607.7181,2026.62,609.84" style="stroke:#181818;stroke-width:1;"/></g><!--link GroupService to Flashcard--><g id="link_GroupService_Flashcard"><path codeLine="134" d="M1200.25,313.08 C1227.73,322.82 1258.14,331.91 1287,337 C1305.96,340.34 1965.3,332.57 1980,345 C2045.16,400.12 1982.16,454.81 2014,534 C2024.39,559.84 2035.5722,580.7622 2050.8122,604.6422 " fill="none" id="GroupService-to-Flashcard" style="stroke:#181818;stroke-width:1;stroke-dasharray:7.0,7.0;"/><polygon fill="#181818" points="2054.04,609.7,2052.5701,599.9614,2051.3501,605.4852,2045.8264,604.2652,2054.04,609.7" style="stroke:#181818;stroke-width:1;"/></g><!--link LearningService to Flashcard--><g id="link_LearningService_Flashcard"><path codeLine="135" d="M1887.88,304.55 C1915.89,315.57 1948.15,327.56 1978,337 C1991.98,341.42 1999.42,334.85 2010,345 C2027.89,362.16 2064.97,535.55 2073,559 C2078.69,575.6 2082.9503,587.4345 2089.4203,604.3845 " fill="none" id="LearningService-to-Flashcard" style="stroke:#181818;stroke-width:1;stroke-dasharray:7.0,7.0;"/><polygon fill="#181818" points="2091.56,609.99,2092.0875,600.1553,2089.7769,605.3187,2084.6135,603.0082,2091.56,609.99" style="stroke:#181818;stroke-width:1;"/></g><!--link CategoryContextMixin to GroupService--><g id="link_CategoryContextMixin_GroupService"><path codeLine="162" d="M1154.66,148.27 C1145.15,172.34 1134.152,200.1887 1123.902,226.1687 " fill="none" id="CategoryContextMixin-to-GroupService" style="stroke:#181818;stroke-width:1;stroke-dasharray:7.0,7.0;"/><polygon fill="#181818" points="1121.7,231.75,1128.7239,224.846,1123.535,227.0989,1121.2822,221.91,1121.7,231.75" style="stroke:#181818;stroke-width:1;"/></g><!--link FlashcardListView to GroupService--><g id="link_FlashcardListView_GroupService"><path codeLine="166" d="M981.01,140.13 C1004.07,164.37 1036.604,198.5633 1064.274,227.6433 " fill="none" id="FlashcardListView-to-GroupService" style="stroke:#181818;stroke-width:1;stroke-dasharray:7.0,7.0;"/><polygon fill="#181818" points="1068.41,231.99,1065.1039,222.7126,1064.9634,228.3677,1059.3083,228.2272,1068.41,231.99" style="stroke:#181818;stroke-width:1;"/></g><!--link AddFlashcardView to FlashcardForm--><g id="link_AddFlashcardView_FlashcardForm"><path codeLine="167" d="M1832.84,140.15 C1851.15,151.81 1874.86,164.93 1898,172 C1939.79,184.77 1955.54,163.48 1996,180 C2024.06,191.46 2046.0352,208.6008 2065.8852,227.7808 " fill="none" id="AddFlashcardView-to-FlashcardForm" style="stroke:#181818;stroke-width:1;stroke-dasharray:7.0,7.0;"/><polygon fill="#181818" points="2070.2,231.95,2066.5072,222.8196,2066.6043,228.4757,2060.9483,228.5728,2070.2,231.95" style="stroke:#181818;stroke-width:1;"/></g><!--link AddFlashcardView to Flashcard--><g id="link_AddFlashcardView_Flashcard"><path codeLine="168" d="M1837.28,140.19 C1855.21,150.76 1877.28,162.9 1898,172 C1920.26,181.77 1932.37,172.26 1950,189 C2001.11,237.54 1963.89,281.23 2007,337 C2010.85,341.98 2049.5,364.77 2053,370 C2100.66,441.23 2119.7616,531.1673 2127.8916,603.6973 " fill="none" id="AddFlashcardView-to-Flashcard" style="stroke:#181818;stroke-width:1;stroke-dasharray:7.0,7.0;"/><polygon fill="#181818" points="2128.56,609.66,2131.5326,600.2704,2128.003,604.6911,2123.5823,601.1616,2128.56,609.66" style="stroke:#181818;stroke-width:1;"/><text fill="#000000" font-family="sans-serif" font-size="13" lengthAdjust="spacing" textLength="100.3438" x="2043" y="358.0669">creates/edits</text></g><!--link EditFlashcardView to FlashcardForm--><g id="link_EditFlashcardView_FlashcardForm"><path codeLine="169" d="M2218.35,140.06 C2218.65,152.77 2217.34,168.47 2211,181 C2201,200.75 2189.2399,214.1716 2172.3699,228.1516 " fill="none" id="EditFlashcardView-to-FlashcardForm" style="stroke:#181818;stroke-width:1;stroke-dasharray:7.0,7.0;"/><polygon fill="#181818" points="2167.75,231.98,2177.2321,229.3173,2171.5999,228.7896,2172.1275,223.1574,2167.75,231.98" style="stroke:#181818;stroke-width:1;"/></g><!--link EditFlashcardView to Flashcard--><g id="link_EditFlashcardView_Flashcard"><path codeLine="170" d="M2252.11,140.23 C2270.15,151.06 2292.64,163.42 2314,172 C2327.2,177.3 2336.29,168.75 2345,180 C2396.58,246.58 2382.98,483.83 2345,559 C2325.97,596.67 2297.9487,624.0239 2263.6787,647.9639 " fill="none" id="EditFlashcardView-to-Flashcard" style="stroke:#181818;stroke-width:1;stroke-dasharray:7.0,7.0;"/><polygon fill="#181818" points="2258.76,651.4,2268.4287,649.5251,2262.8589,648.5366,2263.8473,642.9668,2258.76,651.4" style="stroke:#181818;stroke-width:1;"/></g><!--link DeleteFlashcardView to Flashcard--><g id="link_DeleteFlashcardView_Flashcard"><path codeLine="171" d="M2422.72,140.17 C2426.68,205.04 2432.13,392.93 2376,534 C2354.54,587.94 2311.4784,625.8592 2263.7084,655.0792 " fill="none" id="DeleteFlashcardView-to-Flashcard" style="stroke:#181818;stroke-width:1;stroke-dasharray:7.0,7.0;"/><polygon fill="#181818" points="2258.59,658.21,2268.3548,656.926,2262.8553,655.601,2264.1804,650.1015,2258.59,658.21" style="stroke:#181818;stroke-width:1;"/></g><!--link DisplayFlashcardView to Flashcard--><g id="link_DisplayFlashcardView_Flashcard"><path codeLine="172" d="M2045.63,140.02 C2066.49,151.63 2093.33,164.76 2119,172 C2159.59,183.45 2279.55,157.87 2308,189 C2363.47,249.69 2341.58,483.95 2308,559 C2296.58,584.52 2282.9205,603.3252 2262.8605,623.4052 " fill="none" id="DisplayFlashcardView-to-Flashcard" style="stroke:#181818;stroke-width:1;stroke-dasharray:7.0,7.0;"/><polygon fill="#181818" points="2258.62,627.65,2267.8106,624.1099,2262.1538,624.1127,2262.151,618.4559,2258.62,627.65" style="stroke:#181818;stroke-width:1;"/></g><!--link DisplayFlashcardView to RendererFactory--><g id="link_DisplayFlashcardView_RendererFactory"><path codeLine="173" d="M1970.78,140.16 C1950.12,151.82 1923.52,164.94 1898,172 C1802.2,198.5 1771.57,165.46 1675,189 C1627.89,200.48 1582.9667,219.5578 1545.3867,237.8178 " fill="none" id="DisplayFlashcardView-to-RendererFactory" style="stroke:#181818;stroke-width:1;stroke-dasharray:7.0,7.0;"/><polygon fill="#181818" points="1539.99,240.44,1549.8331,240.1044,1544.4872,238.2548,1546.3368,232.9089,1539.99,240.44" style="stroke:#181818;stroke-width:1;"/></g><!--link DisplayFlashcardView to FlashcardStandard--><g id="link_DisplayFlashcardView_FlashcardStandard"><path codeLine="174" d="M2048.01,140.04 C2068.65,151.09 2094.56,163.7 2119,172 C2155.89,184.54 2180.26,158.9 2205,189 C2246.76,239.82 2236.56,279.29 2205,337 C2195.12,355.06 2184.77,353.55 2166,362 C2091.85,395.37 2009.5081,418.8057 1940.4681,435.1757 " fill="none" id="DisplayFlashcardView-to-FlashcardStandard" style="stroke:#181818;stroke-width:1;stroke-dasharray:7.0,7.0;"/><polygon fill="#181818" points="1934.63,436.56,1944.31,438.3757,1939.4951,435.4064,1942.4643,430.5915,1934.63,436.56" style="stroke:#181818;stroke-width:1;"/></g><!--link FlashcardAudioView to Flashcard--><g id="link_FlashcardAudioView_Flashcard"><path codeLine="175" d="M1417.31,140.12 C1437.07,152.08 1462.9,165.51 1488,172 C1507.29,176.99 2189.94,175.96 2205,189 C2255.43,232.66 2202.4,276.27 2230,337 C2237.84,354.25 2250.63,352.15 2257,370 C2269.25,404.32 2267.74,499.17 2257,534 C2248.9,560.27 2238.741,581.0779 2223.731,604.6679 " fill="none" id="FlashcardAudioView-to-Flashcard" style="stroke:#181818;stroke-width:1;stroke-dasharray:7.0,7.0;"/><polygon fill="#181818" points="2220.51,609.73,2228.7162,604.2841,2223.1941,605.5115,2221.9667,599.9895,2220.51,609.73" style="stroke:#181818;stroke-width:1;"/></g><!--link FlashcardAudioView to RendererFactory--><g id="link_FlashcardAudioView_RendererFactory"><path codeLine="176" d="M1397.67,140.13 C1414.6,166.82 1439.2963,205.7533 1458.0963,235.3933 " fill="none" id="FlashcardAudioView-to-RendererFactory" style="stroke:#181818;stroke-width:1;stroke-dasharray:7.0,7.0;"/><polygon fill="#181818" points="1461.31,240.46,1459.8672,230.7174,1458.6319,236.2377,1453.1116,235.0024,1461.31,240.46" style="stroke:#181818;stroke-width:1;"/></g><!--link LearnFlashcardsView to GroupService--><g id="link_LearnFlashcardsView_GroupService"><path codeLine="177" d="M1558.48,140.08 C1538.21,151.71 1512.09,164.84 1487,172 C1401.21,196.47 1373.3,166.39 1287,189 C1249.58,198.8 1215.6368,213.1573 1183.2468,229.1973 " fill="none" id="LearnFlashcardsView-to-GroupService" style="stroke:#181818;stroke-width:1;stroke-dasharray:7.0,7.0;"/><polygon fill="#181818" points="1177.87,231.86,1187.7103,231.4505,1182.3507,229.6411,1184.1601,224.2814,1177.87,231.86" style="stroke:#181818;stroke-width:1;"/></g><!--link LearnFlashcardsView to LearningService--><g id="link_LearnFlashcardsView_LearningService"><path codeLine="178" d="M1627.64,140.13 C1665.29,166.82 1722.4744,207.3511 1764.3044,236.9911 " fill="none" id="LearnFlashcardsView-to-LearningService" style="stroke:#181818;stroke-width:1;stroke-dasharray:7.0,7.0;"/><polygon fill="#181818" points="1769.2,240.46,1764.1693,231.9929,1765.1204,237.5692,1759.544,238.5203,1769.2,240.46" style="stroke:#181818;stroke-width:1;"/></g><!--link LearnFlashcardsView to Flashcard--><g id="link_LearnFlashcardsView_Flashcard"><path codeLine="179" d="M1630.4,140.04 C1650.76,151.98 1677.32,165.4 1703,172 C1731.59,179.35 2211.14,170.33 2234,189 C2297.99,241.28 2300.2,481.7 2271,559 C2264.26,576.84 2257.9176,589.0706 2246.5876,605.0006 " fill="none" id="LearnFlashcardsView-to-Flashcard" style="stroke:#181818;stroke-width:1;stroke-dasharray:7.0,7.0;"/><polygon fill="#181818" points="2243.11,609.89,2251.586,604.8742,2246.008,605.8155,2245.0667,600.2375,2243.11,609.89" style="stroke:#181818;stroke-width:1;"/></g><!--link OCRResultsView to FlashcardFacade--><g id="link_OCRResultsView_FlashcardFacade"><path codeLine="180" d="M749.59,140.13 C727.15,164.37 695.5551,198.5062 668.6451,227.5862 " fill="none" id="OCRResultsView-to-FlashcardFacade" style="stroke:#181818;stroke-width:1;stroke-dasharray:7.0,7.0;"/><polygon fill="#181818" points="664.57,231.99,673.6186,228.1011,667.966,228.3202,667.7469,222.6676,664.57,231.99" style="stroke:#181818;stroke-width:1;"/></g><!--link SaveFlashcardsView to Flashcard--><g id="link_SaveFlashcardsView_Flashcard"><path codeLine="181" d="M2879.36,140.17 C2768.24,199.3 2482.29,352.4 2467,370 C2415.78,428.93 2447.79,469.35 2404,534 C2394.83,547.54 2389.94,549 2377,559 C2339.95,587.64 2302.6217,612.904 2263.7217,637.494 " fill="none" id="SaveFlashcardsView-to-Flashcard" style="stroke:#181818;stroke-width:1;stroke-dasharray:7.0,7.0;"/><polygon fill="#181818" points="2258.65,640.7,2268.3948,639.2722,2262.8764,638.0284,2264.1202,632.5099,2258.65,640.7" style="stroke:#181818;stroke-width:1;"/></g><!--link GenerateFromTextView to FlashcardFacade--><g id="link_GenerateFromTextView_FlashcardFacade"><path codeLine="182" d="M411.18,140.13 C451.19,164.37 509.6583,199.801 557.6583,228.881 " fill="none" id="GenerateFromTextView-to-FlashcardFacade" style="stroke:#181818;stroke-width:1;stroke-dasharray:7.0,7.0;"/><polygon fill="#181818" points="562.79,231.99,557.1651,223.9054,558.5136,229.3992,553.0198,230.7477,562.79,231.99" style="stroke:#181818;stroke-width:1;"/></g><!--link UploadPhotoView to FlashcardFacade--><g id="link_UploadPhotoView_FlashcardFacade"><path codeLine="183" d="M591.44,140.13 C598.19,164.37 607.3019,197.1295 615.3919,226.2095 " fill="none" id="UploadPhotoView-to-FlashcardFacade" style="stroke:#181818;stroke-width:1;stroke-dasharray:7.0,7.0;"/><polygon fill="#181818" points="617,231.99,618.4415,222.2472,615.6599,227.1729,610.7342,224.3914,617,231.99" style="stroke:#181818;stroke-width:1;"/></g><!--SRC=[hLVRRkCs47ttLn1vsCXeBkZj9TWDaCRE8a2o2UmqVHHeaRRPogHBKl6ws_nxXvHayQROmTP054Sp7CwSENF9CVhKznaSen-7wFvXDBwRmlT-lJKk_i8BYexc9LRB0akYpbQ2q58TeMy319y210hTjEBchVdyWFwkgD9CS7I1dkXNxKWmLnigu_S5rdGXv1OaIaj7e4Gb2ng_rd0WUbj82gz9ZZM827pLR4KTURKcRyXFJv6Zc-TWEy-pONG-DvSp2B1GMI6af8KnDnEYh7LV1w-3mPle7gEVXcWqldwON3qzJARe0xeQtTz-UNT628NxiHQoBokZLi59podQMG2tTweE34x42wfpGZLcfVAGACKYtvd9SM6odTM_wgoqK9YdVHoZgyL2qWKsEXUeysmfIg8GHfBEgQGSagq5_DanQrPfH0HL_5WZiU68QOLADgV5jYZhx2NY5P3DBZP8I0e_J5QCzq1tPMGkR2uiK0WKY60h8fFKylq4YTcVYR2VbamrnbSGOBc5qslA8MR0gejo3au3FC0hQI42KjHuAZ_4sg-piqldx0Nw-B4nUdbv0Fj-7gARXydz-ri0EBdguzeDoFhmWaHXxX58uHSArRDQiR1uFEYemMNLSKCX3U-wo6q6TWn1NBGKyK6pldqVPhyCqNGyURwz7hyVDaNb2mFdM-IW5cOcpuK-ds558JnE8BwwbU565E8xQPIyJbkVp98LVO9Ap1ULSSOhoHRSZK25uD0pTUU1SZ9hMlJtN-eqwLV7-5L5cFXVhC-scgeWj2NT0gVq4Z6-f18eDfTYPQbZyBPQNdIdf_zUnaXRFT_H7iNctj_CbJMf_EA6pW1JGg5i3R5J0curOK9Bq4j1r33swIswnewzfTruTmEaCYDMBs7-rQDI9HFV6cqFV0i6GdicCxLfPscJYZI2TTf3eyPXBrxZS-DL4s7gY1-rVwQjhIOC6-SQCsccYs9yKRgTOyCWLzWllQ3YfXfpukysUuVdpc0l7F4mOMfTuctcDi1WMWA3wp7fDa9_Idvm__8kZEFnX-C1EY7H8IEOq1hXYZD3f8Vh2SJovUunEHjgVPz8d4gpJNLzCZTLchCLb7Tcd_aQGv8ilKvsA-Ad8qBdk2hrqV0GSneubfd7FZkxxf6A1DuzIW6mA-5tAp1icdLzJUZqCDfGCSVbzXzgrND0Ea_udVGstgfgny3Dj6FkJGTOR6AVDfFAkU6p5DMwUH-rWiOOex0UWi4IrfT0myd7RDlgRxDzSTrHB3dKRD_5t02uizrD2nK4DB9T42g6qM2HQZXfcegRtLub5-bU9R-gFDR4OYztiTW3FXQ72FaQ-nUQNuVe-NRynnGvuEKlZ6u0mlSkEFQOlnTUDmc-5jomxvvzzTRfc3uH1RgUL1K6f7luWOkjfK5AxmxOzmoUk6i68Jjn81eJflja8xlVzqhhXjqdxbPrCwi2eStQJaC5KY3CX2heIQ5W2kjoxwdFJG-vWNvdHceW_drT2amUbqBNphmQPbWK5Jht2oIPD4Cibujm-gtKe2KsYpYCDVkVSJUnpBLcet_1aebA8KkQYq6KllZ2C8i-ryrolqV5NHJEAIJUh0iH0H9cz-WC4aG9DH9aELGbM80EiDMExq5Cmk3I7eNmoWHVu_pqAGKjgbUlyyelW20XjiqEub88RAJA8MafA8oKpdy0]--></g></svg>